<?xml version="1.0" encoding="UTF-8" standalone="no"?>
<!-- Created with Inkscape (http://www.inkscape.org/) -->

<svg
   xmlns:osb="http://www.openswatchbook.org/uri/2009/osb"
   xmlns:dc="http://purl.org/dc/elements/1.1/"
   xmlns:cc="http://creativecommons.org/ns#"
   xmlns:rdf="http://www.w3.org/1999/02/22-rdf-syntax-ns#"
   xmlns:svg="http://www.w3.org/2000/svg"
   xmlns="http://www.w3.org/2000/svg"
   xmlns:sodipodi="http://sodipodi.sourceforge.net/DTD/sodipodi-0.dtd"
   xmlns:inkscape="http://www.inkscape.org/namespaces/inkscape"
   width="1920"
   height="240"
   viewBox="0 0 507.99999 63.500002"
   version="1.1"
   id="svg8"
   inkscape:version="0.92.4 (5da689c313, 2019-01-14)"
   sodipodi:docname="Logo.svg">
  <defs
     id="defs2">
    <linearGradient
       id="linearGradient5853"
       osb:paint="solid">
      <stop
         style="stop-color:#000000;stop-opacity:1;"
         offset="0"
         id="stop5851" />
    </linearGradient>
    <filter
       style="color-interpolation-filters:sRGB"
       id="filter5812"
       inkscape:label="filtro0" />
  </defs>
  <sodipodi:namedview
     id="base"
     pagecolor="#ffffff"
     bordercolor="#666666"
     borderopacity="1.0"
     inkscape:pageopacity="0.0"
     inkscape:pageshadow="2"
     inkscape:zoom="1.4142136"
     inkscape:cx="1262.1948"
     inkscape:cy="142.10554"
     inkscape:document-units="px"
     inkscape:current-layer="layer3"
     showgrid="false"
     units="px"
     inkscape:pagecheckerboard="true"
     inkscape:snap-smooth-nodes="true"
     inkscape:window-width="1440"
     inkscape:window-height="847"
     inkscape:window-x="-8"
     inkscape:window-y="22"
     inkscape:window-maximized="1">
    <inkscape:grid
       type="xygrid"
       id="grid815"
       empspacing="10"
       dotted="true"
       color="#595959"
       opacity="0.34901961"
       empcolor="#787878"
       empopacity="0.60392157" />
  </sodipodi:namedview>
  <metadata
     id="metadata5">
    <rdf:RDF>
      <cc:Work
         rdf:about="">
        <dc:format>image/svg+xml</dc:format>
        <dc:type
           rdf:resource="http://purl.org/dc/dcmitype/StillImage" />
        <dc:title />
      </cc:Work>
    </rdf:RDF>
  </metadata>
  <g
     inkscape:label="Livello 1"
     inkscape:groupmode="layer"
     id="layer1"
     transform="translate(0,-233.5)"
     sodipodi:insensitive="true"
     style="display:none">
    <path
       style="opacity:1;fill:#4b585b;fill-opacity:1;stroke:none;stroke-width:0.26458332px;stroke-linecap:butt;stroke-linejoin:miter;stroke-opacity:1"
       d="m 0,233.5 v 47.625 l 10.583333,10.58333 H 497.41666 L 507.99999,281.125 V 233.5 Z"
       id="path5739"
       inkscape:connector-curvature="0"
       sodipodi:nodetypes="ccccccc" />
  </g>
  <g
     inkscape:groupmode="layer"
     id="layer3"
     inkscape:label="Livello 3">
    <path
       style="opacity:1;fill:#f0f0f0;fill-opacity:0.98245615;stroke:none;stroke-width:1.48166645;stroke-miterlimit:4;stroke-dasharray:none"
       d="M 259.29167,13.229167 A 18.520833,18.520833 0 0 0 242.57847,23.8125 h 16.7132 a 7.9374996,7.9374996 0 0 1 7.9375,7.9375 7.9374996,7.9374996 0 0 1 -7.9375,7.9375 7.9374996,7.9374996 0 0 1 -7.9375,-7.9375 7.9374996,7.9374996 0 0 1 2.03243,-5.291666 H 241.55787 A 18.520833,18.520833 0 0 0 240.77083,31.75 18.520833,18.520833 0 0 0 259.29167,50.270833 18.520833,18.520833 0 0 0 277.8125,31.75 18.520833,18.520833 0 0 0 259.29167,13.229167 Z"
       id="path5835"
       inkscape:connector-curvature="0" />
    <path
       style="opacity:1;fill:#f0f0f0;fill-opacity:0.98245615;stroke:none;stroke-width:1.48166633;stroke-miterlimit:4;stroke-dasharray:none"
       d="M 203.72917,13.229167 198.4375,23.8125 h 41.24658 a 21.166667,21.166666 0 0 1 9.40821,-10.583333 z"
       id="rect5860"
       inkscape:connector-curvature="0" />
    <path
       style="opacity:1;fill:#f0f0f0;fill-opacity:0.98245615;stroke:none;stroke-width:1.48166645;stroke-miterlimit:4;stroke-dasharray:none"
       d="m 214.3125,26.458334 -5.29166,23.812499 h 10.58333 l 5.29167,-23.812499 z"
       id="rect5869"
       inkscape:connector-curvature="0"
       sodipodi:nodetypes="ccccc" />
    <path
       style="opacity:1;fill:#f0f0f0;fill-opacity:0.98245615;stroke:none;stroke-width:1.48166645;stroke-miterlimit:4;stroke-dasharray:none"
       d="m 185.20834,13.229167 -2.64584,10.583334 h 10.58334 l 5.29166,-10.583334 z"
       id="rect5872"
       inkscape:connector-curvature="0"
       sodipodi:nodetypes="ccccc" />
    <path
       style="opacity:1;fill:#f0f0f0;fill-opacity:0.98245615;stroke:none;stroke-width:1.48166633;stroke-miterlimit:4;stroke-dasharray:none"
       d="m 161.39583,26.458334 v 7.9375 a 15.875,15.875 0 0 0 15.875,15.874999 15.875,15.875 0 0 0 15.875,-15.874999 v -7.9375 H 182.5625 v 7.9375 a 5.2916632,5.2916674 0 0 1 -5.29167,5.291666 5.2916632,5.2916674 0 0 1 -5.29166,-5.291666 v -7.9375 z"
       id="path5875"
       inkscape:connector-curvature="0" />
    <path
       style="opacity:1;fill:#f0f0f0;fill-opacity:0.98245615;stroke:none;stroke-width:1.48166645;stroke-miterlimit:4;stroke-dasharray:none"
       d="M 137.58334,13.229167 119.0625,50.270833 h 10.58334 l 13.22916,-26.458332 29.10417,-1e-6 2.64583,-10.583333 z"
       id="rect5888"
       inkscape:connector-curvature="0"
       sodipodi:nodetypes="ccccccc" />
    <path
       style="opacity:1;fill:#f0f0f0;fill-opacity:0.98245615;stroke:none;stroke-width:1.48166645;stroke-miterlimit:4;stroke-dasharray:none"
       d="m 142.875,26.458334 2.64584,10.583333 h -7.9375 l 4.25547,5.319347 4.21119,-0.02768 2.11667,7.937499 h 7.9375 L 150.8125,26.458334 Z"
       id="rect830"
       inkscape:connector-curvature="0"
       sodipodi:nodetypes="ccccccccc" />
    <path
       style="opacity:1;fill:#f0f0f0;fill-opacity:0.99707603;stroke:none;stroke-width:1.48166645;stroke-miterlimit:4;stroke-dasharray:none"
       d="M 309.5625,13.229167 298.97917,50.270833 H 309.5625 L 317.5,23.8125 h 59.53125 c 0.73062,0 1.32292,0.59229 1.32292,1.322917 0,0.730627 -0.5923,1.322917 -1.32292,1.322917 h -17.19792 l 3.43959,10.583333 h 13.75833 c 6.57564,0 11.90625,-5.330611 11.90625,-11.90625 0,-6.57564 -5.33061,-11.90625 -11.90625,-11.90625 z"
       id="rect829"
       inkscape:connector-curvature="0"
       sodipodi:nodetypes="cccccssccsscc" />
    <path
       style="opacity:1;fill:#f0f0f0;fill-opacity:0.98245615;stroke:none;stroke-width:1.48166645;stroke-miterlimit:4;stroke-dasharray:none"
       d="m 317.5,29.104167 -2.64583,7.9375 h 31.75 l -2.64584,-7.9375 z"
       id="rect832"
       inkscape:connector-curvature="0"
       sodipodi:nodetypes="ccccc" />
    <path
       style="opacity:1;fill:#f0f0f0;fill-opacity:0.98245615;stroke:none;stroke-width:1.48166645;stroke-miterlimit:4;stroke-dasharray:none"
       d="m 346.60417,26.458334 7.9375,23.812499 H 365.125 l -7.9375,-23.812499 z"
       id="rect835"
       inkscape:connector-curvature="0"
       sodipodi:nodetypes="ccccc" />
    <path
       style="opacity:1;fill:#f0f0f0;fill-opacity:0.98245615;stroke:none;stroke-width:1.48166645;stroke-miterlimit:4;stroke-dasharray:none"
       d="m 328.34792,38.364584 -2.91042,11.906249 h 10.58333 l 2.91042,-11.906249 z"
       id="rect838"
       inkscape:connector-curvature="0"
       sodipodi:nodetypes="ccccc" />
    <path
       style="opacity:1;fill:#f0f0f0;fill-opacity:0.98245615;stroke:none;stroke-width:1.48166645;stroke-miterlimit:4;stroke-dasharray:none"
       d="M 330.99375,25.135418 330.2,27.781251 h 11.37708 l 0.79375,-2.645833 z"
       id="rect841"
       inkscape:connector-curvature="0"
       sodipodi:nodetypes="ccccc" />
    <path
       style="opacity:1;fill:#f0f0f0;fill-opacity:0.98245615;stroke:none;stroke-width:1.48166645;stroke-miterlimit:4;stroke-dasharray:none"
       d="m 388.24453,34.400485 c -2.7626,3.345958 -6.87422,5.284568 -11.21328,5.287015 h -12.96458 l 3.70416,10.583333 h 9.26042 c 6.57564,0 11.90625,-5.33061 11.90625,-11.906249 -0.005,-1.351114 -0.23874,-2.691623 -0.69297,-3.964099 z"
       id="path851"
       inkscape:connector-curvature="0"
       sodipodi:nodetypes="ccccscc" />
    <path
       style="opacity:1;fill:#f0f0f0;fill-opacity:0.50292397;stroke:none;stroke-width:1.48166645;stroke-miterlimit:4;stroke-dasharray:none"
       d="m 377.03125,26.458334 v 10.583333 a 1.3229166,1.3229166 0 0 1 1.32292,1.322917 1.3229166,1.3229166 0 0 1 -1.32292,1.322916 V 50.270833 A 11.90625,11.90625 0 0 0 388.9375,38.364584 11.90625,11.90625 0 0 0 377.03125,26.458334 Z"
       id="path862"
       inkscape:connector-curvature="0" />
  </g>
  <g
     inkscape:groupmode="layer"
     id="layer2"
     inkscape:label="Livello 2"
     style="display:none"
     sodipodi:insensitive="true">
    <path
       transform="translate(0,-233.5)"
       style="fill:none;stroke:#000000;stroke-width:0.26458332px;stroke-linecap:butt;stroke-linejoin:miter;stroke-opacity:1"
       d="M 254,233.5 V 297 Z"
       id="path817"
       inkscape:connector-curvature="0" />
    <rect
       style="opacity:0.497;fill:#000000;fill-opacity:0.98406372;stroke:none;stroke-width:1.48166656;stroke-miterlimit:4;stroke-dasharray:none"
       id="rect5833"
       width="232.83333"
       height="37.041672"
       x="10.583333"
       y="10.583327" />
    <rect
       style="opacity:1;fill:#000000;fill-opacity:0.39461885;stroke:none;stroke-width:1.48166656;stroke-miterlimit:4;stroke-dasharray:none"
       id="rect837"
       width="232.83333"
       height="37.041668"
       x="264.58334"
       y="10.583333" />
  </g>
</svg>
