# Blender v2.80 (sub 75) OBJ File: 'R.blend'
# www.blender.org
mtllib r.mtl
o Cube_Cube.003
v -0.400000 0.250000 -0.500000
v -0.400000 0.400000 -0.500000
v 0.400000 0.250000 -0.500000
v 0.400000 0.400000 -0.500000
v -0.300000 0.250000 -0.500000
v -0.300000 0.400000 -0.500000
v 0.300000 0.250000 -0.500000
v 0.300000 0.400000 -0.500000
v -0.331492 0.250000 -0.155585
v -0.331492 0.400000 -0.155585
v 0.407612 0.250000 -0.461732
v 0.407612 0.400000 -0.461732
v -0.239104 0.250000 -0.193853
v -0.239104 0.400000 -0.193853
v 0.315224 0.250000 -0.423463
v 0.315224 0.400000 -0.423463
v -0.136396 0.250000 0.136396
v -0.136396 0.400000 0.136396
v 0.429289 0.250000 -0.429289
v 0.429289 0.400000 -0.429289
v -0.065685 0.250000 0.065685
v -0.065685 0.400000 0.065685
v 0.358579 0.250000 -0.358579
v 0.358579 0.400000 -0.358579
v 0.155585 0.250000 0.331492
v 0.155585 0.400000 0.331492
v 0.461732 0.250000 -0.407612
v 0.461732 0.400000 -0.407612
v 0.193853 0.250000 0.239104
v 0.193853 0.400000 0.239104
v 0.423463 0.250000 -0.315224
v 0.423463 0.400000 -0.315224
v 0.500000 0.250000 0.400000
v 0.500000 0.400000 0.400000
v 0.500000 0.250000 -0.400000
v 0.500000 0.400000 -0.400000
v 0.500000 0.250000 0.300000
v 0.500000 0.400000 0.300000
v 0.500000 0.250000 -0.300000
v 0.500000 0.400000 -0.300000
vt 0.375000 0.250000
vt 0.375000 0.281250
vt 0.625000 0.281250
vt 0.625000 0.250000
vt 0.375000 0.468750
vt 0.375000 0.500000
vt 0.625000 0.500000
vt 0.625000 0.468750
vt 0.375000 0.468750
vt 0.625000 0.468750
vt 0.625000 0.468750
vt 0.375000 0.468750
vt 0.375000 0.500000
vt 0.375000 0.500000
vt 0.375000 0.281250
vt 0.625000 0.281250
vt 0.625000 0.500000
vt 0.625000 0.250000
vt 0.375000 0.250000
vt 0.375000 0.250000
vt 0.625000 0.250000
vt 0.625000 0.250000
vt 0.375000 0.250000
vt 0.625000 0.500000
vt 0.625000 0.500000
vt 0.625000 0.468750
vt 0.375000 0.281250
vt 0.625000 0.281250
vt 0.625000 0.281250
vt 0.375000 0.281250
vt 0.375000 0.281250
vt 0.625000 0.281250
vt 0.625000 0.250000
vt 0.375000 0.468750
vt 0.375000 0.500000
vt 0.375000 0.250000
vt 0.375000 0.468750
vt 0.625000 0.468750
vt 0.625000 0.500000
vt 0.375000 0.500000
vn 0.0000 0.0000 1.0000
vn 0.8315 0.0000 -0.5556
vn 0.0000 1.0000 0.0000
vn -0.9808 0.0000 0.1951
vn 0.0000 -1.0000 0.0000
vn 0.9808 0.0000 -0.1951
vn 0.5556 0.0000 -0.8315
vn -0.8315 0.0000 0.5556
vn -0.1951 0.0000 0.9808
vn -0.5556 0.0000 0.8315
vn -1.0000 0.0000 0.0000
vn 0.1951 0.0000 -0.9808
usemtl Metal
s off
f 1/1/1 5/2/1 6/3/1 2/4/1
f 7/5/1 3/6/1 4/7/1 8/8/1
f 15/9/2 16/10/2 24/11/2 23/12/2
f 11/13/3 15/9/3 23/12/3 19/14/3
f 6/3/4 5/2/4 13/15/4 14/16/4
f 8/8/5 4/7/5 12/17/5 16/10/5
f 1/1/6 2/4/6 10/18/6 9/19/6
f 3/6/3 7/5/3 15/9/3 11/13/3
f 7/5/6 8/8/6 16/10/6 15/9/6
f 4/7/4 3/6/4 11/13/4 12/17/4
f 5/2/3 1/1/3 9/19/3 13/15/3
f 2/4/5 6/3/5 14/16/5 10/18/5
f 17/20/7 18/21/7 26/22/7 25/23/7
f 24/11/5 20/24/5 28/25/5 32/26/5
f 12/17/8 11/13/8 19/14/8 20/24/8
f 13/15/3 9/19/3 17/20/3 21/27/3
f 10/18/5 14/16/5 22/28/5 18/21/5
f 14/16/8 13/15/8 21/27/8 22/28/8
f 16/10/5 12/17/5 20/24/5 24/11/5
f 9/19/2 10/18/2 18/21/2 17/20/2
f 30/29/9 29/30/9 37/31/9 38/32/9
f 26/22/5 30/29/5 38/32/5 34/33/5
f 19/14/3 23/12/3 31/34/3 27/35/3
f 23/12/7 24/11/7 32/26/7 31/34/7
f 20/24/10 19/14/10 27/35/10 28/25/10
f 21/27/3 17/20/3 25/23/3 29/30/3
f 18/21/5 22/28/5 30/29/5 26/22/5
f 22/28/10 21/27/10 29/30/10 30/29/10
f 33/36/11 34/33/11 38/32/11 37/31/11
f 39/37/11 40/38/11 36/39/11 35/40/11
f 32/26/5 28/25/5 36/39/5 40/38/5
f 25/23/12 26/22/12 34/33/12 33/36/12
f 27/35/3 31/34/3 39/37/3 35/40/3
f 31/34/12 32/26/12 40/38/12 39/37/12
f 28/25/9 27/35/9 35/40/9 36/39/9
f 29/30/3 25/23/3 33/36/3 37/31/3
o Belt_Plane
v 0.500000 0.250000 0.300016
v 0.500000 0.250000 -0.299984
v 0.500000 0.400000 0.300016
v 0.500000 0.400000 -0.299984
v 0.193853 0.250000 0.239120
v 0.423463 0.250000 -0.315208
v 0.193853 0.400000 0.239120
v 0.423463 0.400000 -0.315208
v -0.065685 0.250000 0.065701
v 0.358579 0.250000 -0.358562
v -0.065685 0.400000 0.065701
v 0.358579 0.400000 -0.358562
v -0.239104 0.250000 -0.193837
v 0.315224 0.250000 -0.423447
v -0.239104 0.400000 -0.193837
v 0.315224 0.400000 -0.423447
v -0.300000 0.250000 -0.499984
v 0.300000 0.250000 -0.499984
v -0.300000 0.400000 -0.499984
v 0.300000 0.400000 -0.499984
v 0.313321 0.400000 -0.433014
v 0.311418 0.400000 -0.442581
v 0.309515 0.400000 -0.452148
v 0.307612 0.400000 -0.461715
v 0.305709 0.400000 -0.471283
v 0.303806 0.400000 -0.480850
v 0.301903 0.400000 -0.490417
v 0.301903 0.250000 -0.490417
v 0.303806 0.250000 -0.480850
v 0.305709 0.250000 -0.471283
v 0.307612 0.250000 -0.461715
v 0.309515 0.250000 -0.452148
v 0.311418 0.250000 -0.442581
v 0.313321 0.250000 -0.433014
v -0.246716 0.250000 -0.232106
v -0.254328 0.250000 -0.270374
v -0.261940 0.250000 -0.308642
v -0.269552 0.250000 -0.346911
v -0.277164 0.250000 -0.385179
v -0.284776 0.250000 -0.423447
v -0.292388 0.250000 -0.461716
v -0.292388 0.400000 -0.461716
v -0.284776 0.400000 -0.423447
v -0.277164 0.400000 -0.385179
v -0.269552 0.400000 -0.346911
v -0.261940 0.400000 -0.308642
v -0.254328 0.400000 -0.270374
v -0.246716 0.400000 -0.232106
v -0.087363 0.400000 0.033259
v -0.109040 0.400000 0.000817
v -0.130717 0.400000 -0.031626
v -0.152395 0.400000 -0.064068
v -0.174072 0.400000 -0.096510
v -0.195749 0.400000 -0.128953
v -0.217426 0.400000 -0.161395
v 0.320643 0.400000 -0.415337
v 0.326063 0.400000 -0.407226
v 0.331482 0.400000 -0.399115
v 0.336901 0.400000 -0.391005
v 0.342321 0.400000 -0.382894
v 0.347740 0.400000 -0.374784
v 0.353159 0.400000 -0.366673
v 0.353159 0.250000 -0.366673
v 0.347740 0.250000 -0.374784
v 0.342321 0.250000 -0.382894
v 0.336901 0.250000 -0.391005
v 0.331482 0.250000 -0.399115
v 0.326063 0.250000 -0.407226
v 0.320643 0.250000 -0.415337
v -0.217426 0.250000 -0.161395
v -0.195749 0.250000 -0.128953
v -0.174072 0.250000 -0.096510
v -0.152395 0.250000 -0.064068
v -0.130717 0.250000 -0.031626
v -0.109040 0.250000 0.000817
v -0.087363 0.250000 0.033259
v 0.161411 0.250000 0.217442
v 0.128969 0.250000 0.195765
v 0.096526 0.250000 0.174088
v 0.064084 0.250000 0.152411
v 0.031642 0.250000 0.130733
v -0.000801 0.250000 0.109056
v -0.033243 0.250000 0.087379
v -0.033243 0.400000 0.087379
v -0.000801 0.400000 0.109056
v 0.031642 0.400000 0.130733
v 0.064084 0.400000 0.152411
v 0.096526 0.400000 0.174088
v 0.128969 0.400000 0.195765
v 0.161411 0.400000 0.217442
v 0.366689 0.400000 -0.353143
v 0.374800 0.400000 -0.347724
v 0.382910 0.400000 -0.342304
v 0.391021 0.400000 -0.336885
v 0.399132 0.400000 -0.331466
v 0.407242 0.400000 -0.326047
v 0.415353 0.400000 -0.320627
v 0.415353 0.250000 -0.320627
v 0.407242 0.250000 -0.326046
v 0.399132 0.250000 -0.331466
v 0.391021 0.250000 -0.336885
v 0.382910 0.250000 -0.342304
v 0.374800 0.250000 -0.347724
v 0.366689 0.250000 -0.353143
v 0.490433 0.400000 -0.301887
v 0.480866 0.400000 -0.303790
v 0.471299 0.400000 -0.305693
v 0.461732 0.400000 -0.307596
v 0.452165 0.400000 -0.309499
v 0.442597 0.400000 -0.311402
v 0.433030 0.400000 -0.313305
v 0.433030 0.250000 -0.313305
v 0.442597 0.250000 -0.311402
v 0.452165 0.250000 -0.309499
v 0.461732 0.250000 -0.307596
v 0.471299 0.250000 -0.305693
v 0.480866 0.250000 -0.303790
v 0.490433 0.250000 -0.301887
v 0.461732 0.250000 0.292404
v 0.423463 0.250000 0.284792
v 0.385195 0.250000 0.277180
v 0.346927 0.250000 0.269568
v 0.308658 0.250000 0.261956
v 0.270390 0.250000 0.254344
v 0.232122 0.250000 0.246732
v 0.232122 0.400000 0.246732
v 0.270390 0.400000 0.254344
v 0.308658 0.400000 0.261956
v 0.346927 0.400000 0.269568
v 0.385195 0.400000 0.277180
v 0.423463 0.400000 0.284792
v 0.461732 0.400000 0.292404
vt 0.000000 0.000000
vt 0.000000 0.250000
vt 1.000000 0.250000
vt 1.000000 0.000000
vt 0.000000 1.000000
vt 0.000000 0.000000
vt 0.000000 0.000000
vt 0.000000 1.000000
vt 1.000000 0.000000
vt 1.000000 1.000000
vt 1.000000 1.000000
vt 1.000000 0.000000
vt 0.000000 1.000000
vt 0.000000 0.000000
vt 0.000000 0.000000
vt 0.000000 1.000000
vt 0.000000 0.968750
vt 1.000000 0.968750
vt 1.000000 1.000000
vt 0.000000 1.000000
vt 1.000000 0.781250
vt 0.000000 0.781250
vt 0.000000 0.750000
vt 1.000000 0.750000
vt 1.000000 0.468750
vt 0.000000 0.468750
vt 0.000000 0.500000
vt 1.000000 0.500000
vt 0.000000 0.718750
vt 1.000000 0.718750
vt 1.000000 0.750000
vt 0.000000 0.750000
vt 1.000000 0.531250
vt 0.000000 0.531250
vt 0.000000 0.500000
vt 1.000000 0.500000
vt 1.000000 0.000000
vt 1.000000 1.000000
vt 1.000000 1.000000
vt 1.000000 0.000000
vt 1.000000 0.000000
vt 1.000000 1.000000
vt 1.000000 1.000000
vt 1.000000 0.000000
vt -0.000727 0.282326
vt 1.000000 0.281250
vt 1.000000 0.250000
vt -0.000830 0.251230
vt 1.000000 0.000000
vt 1.000000 1.000000
vt 1.000000 1.000000
vt 1.000000 0.000000
vt 0.000000 1.000000
vt 0.000000 0.000000
vt 0.000000 0.000000
vt 0.000000 1.000000
vt 1.000000 1.000000
vt 0.000000 1.000000
vt 0.000000 0.750000
vt 1.000000 0.750000
vt 0.000000 1.000000
vt 0.000000 0.000000
vt 0.000000 0.000000
vt 0.000000 1.000000
vt 1.000000 0.218750
vt 0.000000 0.218750
vt 0.000000 0.250000
vt 1.000000 0.250000
vt 0.000000 0.031250
vt 1.000000 0.031250
vt 0.000000 0.250000
vt 1.000000 0.218750
vt 0.000000 0.218750
vt 1.000000 0.187500
vt 0.000000 0.187500
vt 1.000000 0.156250
vt 0.000000 0.156250
vt 1.000000 0.125000
vt 0.000000 0.125000
vt 1.000000 0.093750
vt 0.000000 0.093750
vt 1.000000 0.062500
vt 0.000000 0.062500
vt 1.000000 0.000000
vt 0.000000 -0.000000
vt 0.000000 0.031250
vt 1.000000 0.031250
vt 0.000000 0.062500
vt 1.000000 0.062500
vt 0.000000 0.093750
vt 1.000000 0.093750
vt 0.000000 0.125000
vt 1.000000 0.125000
vt 0.000000 0.156250
vt 1.000000 0.156250
vt 0.000000 0.187500
vt 1.000000 0.187500
vt 0.000000 0.000000
vt 0.000000 1.000000
vt 0.000000 0.000000
vt 0.000000 1.000000
vt 0.000000 0.000000
vt 0.000000 1.000000
vt 0.000000 0.000000
vt 0.000000 1.000000
vt 0.000000 0.000000
vt 0.000000 1.000000
vt 0.000000 0.000000
vt 0.000000 1.000000
vt 1.000000 1.000000
vt 1.000000 0.000000
vt 1.000000 1.000000
vt 1.000000 0.000000
vt 1.000000 1.000000
vt 1.000000 0.000000
vt 1.000000 1.000000
vt 1.000000 0.000000
vt 1.000000 1.000000
vt 1.000000 0.000000
vt 1.000000 1.000000
vt 1.000000 0.000000
vt 0.000000 0.000000
vt 0.000000 1.000000
vt 0.000000 0.000000
vt 0.000000 1.000000
vt 0.000000 0.000000
vt 0.000000 1.000000
vt 0.000000 0.000000
vt 0.000000 1.000000
vt 0.000000 0.000000
vt 0.000000 1.000000
vt 0.000000 0.000000
vt 0.000000 1.000000
vt 1.000000 1.000000
vt 1.000000 0.000000
vt 1.000000 1.000000
vt 1.000000 0.000000
vt 1.000000 1.000000
vt 1.000000 0.000000
vt 1.000000 1.000000
vt 1.000000 0.000000
vt 1.000000 1.000000
vt 1.000000 0.000000
vt 1.000000 1.000000
vt 1.000000 0.000000
vt 0.000000 0.500000
vt 1.000000 0.500000
vt 1.000000 0.468750
vt -0.000104 0.468904
vt 1.000000 0.437500
vt -0.000208 0.437807
vt 1.000000 0.406250
vt -0.000311 0.406711
vt 1.000000 0.375000
vt -0.000415 0.375615
vt 1.000000 0.343750
vt -0.000519 0.344519
vt 1.000000 0.312500
vt -0.000623 0.313423
vt 1.000000 0.250000
vt 0.000000 0.250000
vt 0.000000 0.281250
vt 1.000000 0.281250
vt 0.000000 0.312500
vt 1.000000 0.312500
vt 0.000000 0.343750
vt 1.000000 0.343750
vt 0.000000 0.375000
vt 1.000000 0.375000
vt 0.000000 0.406250
vt 1.000000 0.406250
vt 0.000000 0.437500
vt 1.000000 0.437500
vt 1.000000 1.000000
vt 1.000000 0.000000
vt 1.000000 1.000000
vt 1.000000 0.000000
vt 1.000000 1.000000
vt 1.000000 0.000000
vt 1.000000 1.000000
vt 1.000000 0.000000
vt 1.000000 1.000000
vt 1.000000 0.000000
vt 1.000000 1.000000
vt 1.000000 0.000000
vt 0.000000 0.718750
vt 1.000000 0.718750
vt 0.000000 0.687500
vt 1.000000 0.687500
vt 0.000000 0.656250
vt 1.000000 0.656250
vt 0.000000 0.625000
vt 1.000000 0.625000
vt 0.000000 0.593750
vt 1.000000 0.593750
vt 0.000000 0.562500
vt 1.000000 0.562500
vt 0.000000 0.500000
vt 1.000000 0.500000
vt 1.000000 0.531250
vt 0.000000 0.531250
vt 1.000000 0.562500
vt 0.000000 0.562500
vt 1.000000 0.593750
vt 0.000000 0.593750
vt 1.000000 0.625000
vt 0.000000 0.625000
vt 1.000000 0.656250
vt 0.000000 0.656250
vt 1.000000 0.687500
vt 0.000000 0.687500
vt 0.000000 0.000000
vt 0.000000 1.000000
vt 0.000000 0.000000
vt 0.000000 1.000000
vt 0.000000 0.000000
vt 0.000000 1.000000
vt 0.000000 0.000000
vt 0.000000 1.000000
vt 0.000000 0.000000
vt 0.000000 1.000000
vt 0.000000 0.000000
vt 0.000000 1.000000
vt 1.000000 1.000000
vt 0.000000 1.000000
vt 0.000000 0.968750
vt 1.000000 0.968750
vt 0.000000 0.937500
vt 1.000000 0.937500
vt 0.000000 0.906250
vt 1.000000 0.906250
vt 0.000000 0.875000
vt 1.000000 0.875000
vt 0.000000 0.843750
vt 1.000000 0.843750
vt 0.000000 0.812500
vt 1.000000 0.812500
vt 0.000000 0.750000
vt 1.000000 0.750000
vt 1.000000 0.781250
vt 0.000000 0.781250
vt 1.000000 0.812500
vt 0.000000 0.812500
vt 1.000000 0.843750
vt 0.000000 0.843750
vt 1.000000 0.875000
vt 0.000000 0.875000
vt 1.000000 0.906250
vt 0.000000 0.906250
vt 1.000000 0.937500
vt 0.000000 0.937500
vt 0.000000 1.000000
vt 0.000000 0.000000
vt 0.000000 1.000000
vt 0.000000 0.000000
vt 0.000000 1.000000
vt 0.000000 0.000000
vt 0.000000 1.000000
vt 0.000000 0.000000
vt 0.000000 1.000000
vt 0.000000 0.000000
vt 0.000000 1.000000
vt 0.000000 0.000000
vt 0.000000 1.000000
vt 1.000000 1.000000
vt 1.000000 1.000000
vt 1.000000 0.000000
vt 1.000000 1.000000
vt 1.000000 0.000000
vt 1.000000 1.000000
vt 1.000000 0.000000
vt 1.000000 1.000000
vt 1.000000 0.000000
vt 1.000000 1.000000
vt 1.000000 0.000000
vt 1.000000 1.000000
vt 1.000000 0.000000
vn -1.0000 0.0000 -0.0000
vn 0.5556 0.0000 -0.8315
vn -0.1951 0.0000 0.9808
vn 0.1951 -0.0000 -0.9808
vn 0.0000 -1.0000 0.0000
vn 0.0000 1.0000 0.0000
vn -0.5556 0.0000 0.8315
vn -0.9808 -0.0000 0.1951
vn -0.8315 0.0000 0.5556
vn 0.8315 0.0000 -0.5556
vn -0.0000 0.0000 1.0000
vn 0.9808 0.0000 -0.1951
usemtl Belt
s off
f 41/41/13 43/42/13 44/43/13 42/44/13
f 124/45/14 123/46/14 49/47/14 51/48/14
f 152/49/15 151/50/15 48/51/15 46/52/15
f 166/53/16 165/54/16 45/55/16 47/56/16
f 151/57/17 166/58/17 47/59/17 48/60/17
f 165/61/18 152/62/18 46/63/18 45/64/18
f 96/65/17 95/66/17 55/67/17 56/68/17
f 131/69/17 124/70/17 51/71/17 52/72/17
f 123/73/18 144/74/18 50/75/18 49/76/18
f 144/77/19 131/78/19 52/79/19 50/80/19
f 68/81/20 67/82/20 60/83/20 58/84/20
f 110/85/18 109/86/18 54/87/18 53/88/18
f 109/89/21 96/90/21 56/91/21 54/92/21
f 95/93/22 110/94/22 53/95/22 55/96/22
f 57/97/23 58/98/23 60/99/23 59/100/23
f 82/101/24 81/102/24 57/103/24 59/104/24
f 67/105/17 82/106/17 59/107/17 60/108/17
f 81/109/18 68/110/18 58/84/18 57/103/18
f 53/111/18 54/87/18 74/112/18 75/113/18
f 75/113/18 74/112/18 73/114/18 76/115/18
f 76/115/18 73/114/18 72/116/18 77/117/18
f 77/117/18 72/116/18 71/118/18 78/119/18
f 78/119/18 71/118/18 70/120/18 79/121/18
f 79/121/18 70/120/18 69/122/18 80/123/18
f 80/123/18 69/122/18 68/110/18 81/109/18
f 56/124/17 55/125/17 88/126/17 61/127/17
f 61/127/17 88/126/17 87/128/17 62/129/17
f 62/129/17 87/128/17 86/130/17 63/131/17
f 63/131/17 86/130/17 85/132/17 64/133/17
f 64/133/17 85/132/17 84/134/17 65/135/17
f 65/135/17 84/134/17 83/136/17 66/137/17
f 66/137/17 83/136/17 82/106/17 67/105/17
f 55/96/24 53/95/24 75/138/24 88/139/24
f 88/139/24 75/138/24 76/140/24 87/141/24
f 87/141/24 76/140/24 77/142/24 86/143/24
f 86/143/24 77/142/24 78/144/24 85/145/24
f 85/145/24 78/144/24 79/146/24 84/147/24
f 84/147/24 79/146/24 80/148/24 83/149/24
f 83/149/24 80/148/24 81/102/24 82/101/24
f 54/92/20 56/91/20 61/150/20 74/151/20
f 74/151/20 61/150/20 62/152/20 73/153/20
f 73/153/20 62/152/20 63/154/20 72/155/20
f 72/155/20 63/154/20 64/156/20 71/157/20
f 71/157/20 64/156/20 65/158/20 70/159/20
f 70/159/20 65/158/20 66/160/20 69/161/20
f 69/161/20 66/160/20 67/82/20 68/81/20
f 51/48/22 49/47/22 116/162/22 89/163/22
f 89/163/22 116/162/22 115/164/22 90/165/22
f 90/165/22 115/164/22 114/166/22 91/167/22
f 91/167/22 114/166/22 113/168/22 92/169/22
f 92/169/22 113/168/22 112/170/22 93/171/22
f 93/171/22 112/170/22 111/172/22 94/173/22
f 94/173/22 111/172/22 110/94/22 95/93/22
f 50/80/21 52/79/21 102/174/21 103/175/21
f 103/175/21 102/174/21 101/176/21 104/177/21
f 104/177/21 101/176/21 100/178/21 105/179/21
f 105/179/21 100/178/21 99/180/21 106/181/21
f 106/181/21 99/180/21 98/182/21 107/183/21
f 107/183/21 98/182/21 97/184/21 108/185/21
f 108/185/21 97/184/21 96/90/21 109/89/21
f 49/186/18 50/187/18 103/188/18 116/189/18
f 116/189/18 103/188/18 104/190/18 115/191/18
f 115/191/18 104/190/18 105/192/18 114/193/18
f 114/193/18 105/192/18 106/194/18 113/195/18
f 113/195/18 106/194/18 107/196/18 112/197/18
f 112/197/18 107/196/18 108/198/18 111/199/18
f 111/199/18 108/198/18 109/86/18 110/85/18
f 52/200/17 51/201/17 89/202/17 102/203/17
f 102/203/17 89/202/17 90/204/17 101/205/17
f 101/205/17 90/204/17 91/206/17 100/207/17
f 100/207/17 91/206/17 92/208/17 99/209/17
f 99/209/17 92/208/17 93/210/17 98/211/17
f 98/211/17 93/210/17 94/212/17 97/213/17
f 97/213/17 94/212/17 95/66/17 96/65/17
f 46/52/19 48/51/19 137/214/19 138/215/19
f 138/215/19 137/214/19 136/216/19 139/217/19
f 139/217/19 136/216/19 135/218/19 140/219/19
f 140/219/19 135/218/19 134/220/19 141/221/19
f 141/221/19 134/220/19 133/222/19 142/223/19
f 142/223/19 133/222/19 132/224/19 143/225/19
f 143/225/19 132/224/19 131/78/19 144/77/19
f 45/64/18 46/63/18 138/226/18 117/227/18
f 117/227/18 138/226/18 139/228/18 118/229/18
f 118/229/18 139/228/18 140/230/18 119/231/18
f 119/231/18 140/230/18 141/232/18 120/233/18
f 120/233/18 141/232/18 142/234/18 121/235/18
f 121/235/18 142/234/18 143/236/18 122/237/18
f 122/237/18 143/236/18 144/74/18 123/73/18
f 48/238/17 47/239/17 130/240/17 137/241/17
f 137/241/17 130/240/17 129/242/17 136/243/17
f 136/243/17 129/242/17 128/244/17 135/245/17
f 135/245/17 128/244/17 127/246/17 134/247/17
f 134/247/17 127/246/17 126/248/17 133/249/17
f 133/249/17 126/248/17 125/250/17 132/251/17
f 132/251/17 125/250/17 124/70/17 131/69/17
f 47/56/14 45/55/14 117/252/14 130/253/14
f 130/253/14 117/252/14 118/254/14 129/255/14
f 129/255/14 118/254/14 119/256/14 128/257/14
f 128/257/14 119/256/14 120/258/14 127/259/14
f 127/259/14 120/258/14 121/260/14 126/261/14
f 126/261/14 121/260/14 122/262/14 125/263/14
f 125/263/14 122/262/14 123/46/14 124/45/14
f 41/264/18 42/265/18 158/266/18 159/267/18
f 159/267/18 158/266/18 157/268/18 160/269/18
f 160/269/18 157/268/18 156/270/18 161/271/18
f 161/271/18 156/270/18 155/272/18 162/273/18
f 162/273/18 155/272/18 154/274/18 163/275/18
f 163/275/18 154/274/18 153/276/18 164/277/18
f 164/277/18 153/276/18 152/62/18 165/61/18
f 44/278/17 43/279/17 172/280/17 145/281/17
f 145/281/17 172/280/17 171/282/17 146/283/17
f 146/283/17 171/282/17 170/284/17 147/285/17
f 147/285/17 170/284/17 169/286/17 148/287/17
f 148/287/17 169/286/17 168/288/17 149/289/17
f 149/289/17 168/288/17 167/290/17 150/291/17
f 150/291/17 167/290/17 166/58/17 151/57/17
f 43/292/16 41/41/16 159/293/16 172/294/16
f 172/294/16 159/293/16 160/295/16 171/296/16
f 171/296/16 160/295/16 161/297/16 170/298/16
f 170/298/16 161/297/16 162/299/16 169/300/16
f 169/300/16 162/299/16 163/301/16 168/302/16
f 168/302/16 163/301/16 164/303/16 167/304/16
f 167/304/16 164/303/16 165/54/16 166/53/16
f 42/44/15 44/305/15 145/306/15 158/307/15
f 158/307/15 145/306/15 146/308/15 157/309/15
f 157/309/15 146/308/15 147/310/15 156/311/15
f 156/311/15 147/310/15 148/312/15 155/313/15
f 155/313/15 148/312/15 149/314/15 154/315/15
f 154/315/15 149/314/15 150/316/15 153/317/15
f 153/317/15 150/316/15 151/50/15 152/49/15
